<?xml version="1.0" encoding="utf-8" standalone="no"?>
<!DOCTYPE svg PUBLIC "-//W3C//DTD SVG 1.1//EN"
  "http://www.w3.org/Graphics/SVG/1.1/DTD/svg11.dtd">
<svg xmlns:xlink="http://www.w3.org/1999/xlink" width="1001.127273pt" height="861.118125pt" viewBox="0 0 1001.127273 861.118125" xmlns="http://www.w3.org/2000/svg" version="1.1">
 <metadata>
  <rdf:RDF xmlns:dc="http://purl.org/dc/elements/1.1/" xmlns:cc="http://creativecommons.org/ns#" xmlns:rdf="http://www.w3.org/1999/02/22-rdf-syntax-ns#">
   <cc:Work>
    <dc:type rdf:resource="http://purl.org/dc/dcmitype/StillImage"/>
    <dc:date>2025-01-31T02:10:14.984572</dc:date>
    <dc:format>image/svg+xml</dc:format>
    <dc:creator>
     <cc:Agent>
      <dc:title>Matplotlib v3.7.0, https://matplotlib.org/</dc:title>
     </cc:Agent>
    </dc:creator>
   </cc:Work>
  </rdf:RDF>
 </metadata>
 <defs>
  <style type="text/css">*{stroke-linejoin: round; stroke-linecap: butt}</style>
 </defs>
 <g id="figure_1">
  <g id="patch_1">
   <path d="M 0 861.118125 
L 1001.127273 861.118125 
L 1001.127273 -0 
L 0 -0 
z
" style="fill: #ffffff"/>
  </g>
  <g id="axes_1">
   <g id="patch_2">
    <path d="M 194.353715 186.452598 
C 169.221302 165.364 139.878247 151.377055 112.787016 147.572227 
C 85.695785 143.767398 63.068258 150.455333 49.887884 166.163091 
C 36.70751 181.870848 34.050409 205.31596 42.501777 231.334913 
C 50.953144 257.353866 69.822964 283.822327 94.955376 304.910925 
C 120.087789 325.999523 149.430844 339.986467 176.522075 343.791296 
C 203.613306 347.596125 226.240833 340.90819 239.421207 325.200432 
C 252.601581 309.492674 255.258682 286.047562 246.807314 260.02861 
C 238.355947 234.009657 219.486127 207.541196 194.353715 186.452598 
z
" clip-path="url(#pfb71e0ac08)" style="fill: #440154; fill-opacity: 0.4; stroke: #440154; stroke-opacity: 0.7; stroke-linejoin: miter"/>
   </g>
   <g id="patch_3">
    <path d="M 228.717351 152.088961 
C 203.584939 131.000363 174.241883 117.013419 147.150652 113.20859 
C 120.059421 109.403762 97.431894 116.091696 84.25152 131.799454 
C 71.071146 147.507212 68.414046 170.952324 76.865413 196.971277 
C 85.316781 222.99023 104.1866 249.458691 129.319013 270.547289 
C 154.451425 291.635887 183.79448 305.622831 210.885711 309.42766 
C 237.976942 313.232488 260.60447 306.544554 273.784843 290.836796 
C 286.965217 275.129038 289.622318 251.683926 281.170951 225.664973 
C 272.719583 199.64602 253.849764 173.177559 228.717351 152.088961 
z
" clip-path="url(#pfb71e0ac08)" style="fill: #31688e; fill-opacity: 0.4; stroke: #31688e; stroke-opacity: 0.7; stroke-linejoin: miter"/>
   </g>
   <g id="patch_4">
    <path d="M 261.019169 270.547289 
C 286.151582 249.458691 305.021401 222.99023 313.472769 196.971277 
C 321.924136 170.952324 319.267035 147.507212 306.086662 131.799454 
C 292.906288 116.091696 270.27876 109.403762 243.187529 113.20859 
C 216.096299 117.013419 186.753243 131.000363 161.620831 152.088961 
C 136.488418 173.177559 117.618599 199.64602 109.167231 225.664973 
C 100.715864 251.683926 103.372965 275.129038 116.553338 290.836796 
C 129.733712 306.544554 152.36124 313.232488 179.452471 309.42766 
C 206.543701 305.622831 235.886757 291.635887 261.019169 270.547289 
z
" clip-path="url(#pfb71e0ac08)" style="fill: #35b779; fill-opacity: 0.4; stroke: #35b779; stroke-opacity: 0.7; stroke-linejoin: miter"/>
   </g>
   <g id="patch_5">
    <path d="M 295.382806 304.910925 
C 320.515218 283.822327 339.385037 257.353866 347.836405 231.334913 
C 356.287773 205.31596 353.630672 181.870848 340.450298 166.163091 
C 327.269924 150.455333 304.642397 143.767398 277.551166 147.572227 
C 250.459935 151.377055 221.11688 165.364 195.984467 186.452598 
C 170.852055 207.541196 151.982235 234.009657 143.530868 260.02861 
C 135.0795 286.047562 137.736601 309.492674 150.916975 325.200432 
C 164.097348 340.90819 186.724876 347.596125 213.816107 343.791296 
C 240.907338 339.986467 270.250393 325.999523 295.382806 304.910925 
z
" clip-path="url(#pfb71e0ac08)" style="fill: #fde725; fill-opacity: 0.4; stroke: #fde725; stroke-opacity: 0.7; stroke-linejoin: miter"/>
   </g>
   <g id="matplotlib.axis_1"/>
   <g id="matplotlib.axis_2"/>
   <g id="text_1">
    <!-- 0 -->
    <g transform="translate(312.337102 242.396222) scale(0.13 -0.13)">
     <defs>
      <path id="DejaVuSans-30" d="M 2034 4250 
Q 1547 4250 1301 3770 
Q 1056 3291 1056 2328 
Q 1056 1369 1301 889 
Q 1547 409 2034 409 
Q 2525 409 2770 889 
Q 3016 1369 3016 2328 
Q 3016 3291 2770 3770 
Q 2525 4250 2034 4250 
z
M 2034 4750 
Q 2819 4750 3233 4129 
Q 3647 3509 3647 2328 
Q 3647 1150 3233 529 
Q 2819 -91 2034 -91 
Q 1250 -91 836 529 
Q 422 1150 422 2328 
Q 422 3509 836 4129 
Q 1250 4750 2034 4750 
z
" transform="scale(0.015625)"/>
     </defs>
     <use xlink:href="#DejaVuSans-30"/>
    </g>
   </g>
   <g id="text_2">
    <!-- 0 -->
    <g transform="translate(253.91892 139.305313) scale(0.13 -0.13)">
     <use xlink:href="#DejaVuSans-30"/>
    </g>
   </g>
   <g id="text_3">
    <!-- 0 -->
    <g transform="translate(284.846193 183.97804) scale(0.13 -0.13)">
     <use xlink:href="#DejaVuSans-30"/>
    </g>
   </g>
   <g id="text_4">
    <!-- 0 -->
    <g transform="translate(130.20983 139.305313) scale(0.13 -0.13)">
     <use xlink:href="#DejaVuSans-30"/>
    </g>
   </g>
   <g id="text_5">
    <!-- 0 -->
    <g transform="translate(264.228011 283.632585) scale(0.13 -0.13)">
     <use xlink:href="#DejaVuSans-30"/>
    </g>
   </g>
   <g id="text_6">
    <!-- 0 -->
    <g transform="translate(192.064375 159.923494) scale(0.13 -0.13)">
     <use xlink:href="#DejaVuSans-30"/>
    </g>
   </g>
   <g id="text_7">
    <!-- 9 -->
    <g transform="translate(243.60983 214.905313) scale(0.13 -0.13)">
     <defs>
      <path id="DejaVuSans-39" d="M 703 97 
L 703 672 
Q 941 559 1184 500 
Q 1428 441 1663 441 
Q 2288 441 2617 861 
Q 2947 1281 2994 2138 
Q 2813 1869 2534 1725 
Q 2256 1581 1919 1581 
Q 1219 1581 811 2004 
Q 403 2428 403 3163 
Q 403 3881 828 4315 
Q 1253 4750 1959 4750 
Q 2769 4750 3195 4129 
Q 3622 3509 3622 2328 
Q 3622 1225 3098 567 
Q 2575 -91 1691 -91 
Q 1453 -91 1209 -44 
Q 966 3 703 97 
z
M 1959 2075 
Q 2384 2075 2632 2365 
Q 2881 2656 2881 3163 
Q 2881 3666 2632 3958 
Q 2384 4250 1959 4250 
Q 1534 4250 1286 3958 
Q 1038 3666 1038 3163 
Q 1038 2656 1286 2365 
Q 1534 2075 1959 2075 
z
" transform="scale(0.015625)"/>
     </defs>
     <use xlink:href="#DejaVuSans-39"/>
    </g>
   </g>
   <g id="text_8">
    <!-- 0 -->
    <g transform="translate(68.355284 242.396222) scale(0.13 -0.13)">
     <use xlink:href="#DejaVuSans-30"/>
    </g>
   </g>
   <g id="text_9">
    <!-- 12 -->
    <g transform="translate(187.92875 328.305313) scale(0.13 -0.13)">
     <defs>
      <path id="DejaVuSans-31" d="M 794 531 
L 1825 531 
L 1825 4091 
L 703 3866 
L 703 4441 
L 1819 4666 
L 2450 4666 
L 2450 531 
L 3481 531 
L 3481 0 
L 794 0 
L 794 531 
z
" transform="scale(0.015625)"/>
      <path id="DejaVuSans-32" d="M 1228 531 
L 3431 531 
L 3431 0 
L 469 0 
L 469 531 
Q 828 903 1448 1529 
Q 2069 2156 2228 2338 
Q 2531 2678 2651 2914 
Q 2772 3150 2772 3378 
Q 2772 3750 2511 3984 
Q 2250 4219 1831 4219 
Q 1534 4219 1204 4116 
Q 875 4013 500 3803 
L 500 4441 
Q 881 4594 1212 4672 
Q 1544 4750 1819 4750 
Q 2544 4750 2975 4387 
Q 3406 4025 3406 3419 
Q 3406 3131 3298 2873 
Q 3191 2616 2906 2266 
Q 2828 2175 2409 1742 
Q 1991 1309 1228 531 
z
" transform="scale(0.015625)"/>
     </defs>
     <use xlink:href="#DejaVuSans-31"/>
     <use xlink:href="#DejaVuSans-32" x="63.623047"/>
    </g>
   </g>
   <g id="text_10">
    <!-- 0 -->
    <g transform="translate(119.900739 283.632585) scale(0.13 -0.13)">
     <use xlink:href="#DejaVuSans-30"/>
    </g>
   </g>
   <g id="text_11">
    <!-- 0 -->
    <g transform="translate(154.264375 304.250767) scale(0.13 -0.13)">
     <use xlink:href="#DejaVuSans-30"/>
    </g>
   </g>
   <g id="text_12">
    <!-- 0 -->
    <g transform="translate(99.282557 183.97804) scale(0.13 -0.13)">
     <use xlink:href="#DejaVuSans-30"/>
    </g>
   </g>
   <g id="text_13">
    <!-- 2 -->
    <g transform="translate(229.864375 304.250767) scale(0.13 -0.13)">
     <use xlink:href="#DejaVuSans-32"/>
    </g>
   </g>
   <g id="text_14">
    <!-- 22 -->
    <g transform="translate(136.383295 214.905313) scale(0.13 -0.13)">
     <use xlink:href="#DejaVuSans-32"/>
     <use xlink:href="#DejaVuSans-32" x="63.623047"/>
    </g>
   </g>
   <g id="text_15">
    <!-- 1477 -->
    <g transform="translate(179.6575 256.141676) scale(0.13 -0.13)">
     <defs>
      <path id="DejaVuSans-34" d="M 2419 4116 
L 825 1625 
L 2419 1625 
L 2419 4116 
z
M 2253 4666 
L 3047 4666 
L 3047 1625 
L 3713 1625 
L 3713 1100 
L 3047 1100 
L 3047 0 
L 2419 0 
L 2419 1100 
L 313 1100 
L 313 1709 
L 2253 4666 
z
" transform="scale(0.015625)"/>
      <path id="DejaVuSans-37" d="M 525 4666 
L 3525 4666 
L 3525 4397 
L 1831 0 
L 1172 0 
L 2766 4134 
L 525 4134 
L 525 4666 
z
" transform="scale(0.015625)"/>
     </defs>
     <use xlink:href="#DejaVuSans-31"/>
     <use xlink:href="#DejaVuSans-34" x="63.623047"/>
     <use xlink:href="#DejaVuSans-37" x="127.246094"/>
     <use xlink:href="#DejaVuSans-37" x="190.869141"/>
    </g>
   </g>
   <g id="text_16">
    <!-- EV-A -->
    <g transform="translate(182.522813 16.318125) scale(0.12 -0.12)">
     <defs>
      <path id="DejaVuSans-45" d="M 628 4666 
L 3578 4666 
L 3578 4134 
L 1259 4134 
L 1259 2753 
L 3481 2753 
L 3481 2222 
L 1259 2222 
L 1259 531 
L 3634 531 
L 3634 0 
L 628 0 
L 628 4666 
z
" transform="scale(0.015625)"/>
      <path id="DejaVuSans-56" d="M 1831 0 
L 50 4666 
L 709 4666 
L 2188 738 
L 3669 4666 
L 4325 4666 
L 2547 0 
L 1831 0 
z
" transform="scale(0.015625)"/>
      <path id="DejaVuSans-2d" d="M 313 2009 
L 1997 2009 
L 1997 1497 
L 313 1497 
L 313 2009 
z
" transform="scale(0.015625)"/>
      <path id="DejaVuSans-41" d="M 2188 4044 
L 1331 1722 
L 3047 1722 
L 2188 4044 
z
M 1831 4666 
L 2547 4666 
L 4325 0 
L 3669 0 
L 3244 1197 
L 1141 1197 
L 716 0 
L 50 0 
L 1831 4666 
z
" transform="scale(0.015625)"/>
     </defs>
     <use xlink:href="#DejaVuSans-45"/>
     <use xlink:href="#DejaVuSans-56" x="63.183594"/>
     <use xlink:href="#DejaVuSans-2d" x="125.716797"/>
     <use xlink:href="#DejaVuSans-41" x="159.550781"/>
    </g>
   </g>
   <g id="legend_1">
    <g id="patch_6">
     <path d="M 283.999063 109.044375 
L 376.1 109.044375 
Q 378.7 109.044375 378.7 106.444375 
L 378.7 31.418125 
Q 378.7 28.818125 376.1 28.818125 
L 283.999063 28.818125 
Q 281.399063 28.818125 281.399063 31.418125 
L 281.399063 106.444375 
Q 281.399063 109.044375 283.999063 109.044375 
z
" style="fill: #ffffff; opacity: 0.8; stroke: #cccccc; stroke-linejoin: miter"/>
    </g>
    <g id="patch_7">
     <path d="M 286.599063 43.896094 
L 312.599063 43.896094 
L 312.599063 34.796094 
L 286.599063 34.796094 
z
" style="fill: #440154; fill-opacity: 0.4; stroke: #440154; stroke-opacity: 0.7; stroke-linejoin: miter"/>
    </g>
    <g id="text_17">
     <!-- Assay 1 -->
     <g transform="translate(322.999062 43.896094) scale(0.13 -0.13)">
      <defs>
       <path id="DejaVuSans-73" d="M 2834 3397 
L 2834 2853 
Q 2591 2978 2328 3040 
Q 2066 3103 1784 3103 
Q 1356 3103 1142 2972 
Q 928 2841 928 2578 
Q 928 2378 1081 2264 
Q 1234 2150 1697 2047 
L 1894 2003 
Q 2506 1872 2764 1633 
Q 3022 1394 3022 966 
Q 3022 478 2636 193 
Q 2250 -91 1575 -91 
Q 1294 -91 989 -36 
Q 684 19 347 128 
L 347 722 
Q 666 556 975 473 
Q 1284 391 1588 391 
Q 1994 391 2212 530 
Q 2431 669 2431 922 
Q 2431 1156 2273 1281 
Q 2116 1406 1581 1522 
L 1381 1569 
Q 847 1681 609 1914 
Q 372 2147 372 2553 
Q 372 3047 722 3315 
Q 1072 3584 1716 3584 
Q 2034 3584 2315 3537 
Q 2597 3491 2834 3397 
z
" transform="scale(0.015625)"/>
       <path id="DejaVuSans-61" d="M 2194 1759 
Q 1497 1759 1228 1600 
Q 959 1441 959 1056 
Q 959 750 1161 570 
Q 1363 391 1709 391 
Q 2188 391 2477 730 
Q 2766 1069 2766 1631 
L 2766 1759 
L 2194 1759 
z
M 3341 1997 
L 3341 0 
L 2766 0 
L 2766 531 
Q 2569 213 2275 61 
Q 1981 -91 1556 -91 
Q 1019 -91 701 211 
Q 384 513 384 1019 
Q 384 1609 779 1909 
Q 1175 2209 1959 2209 
L 2766 2209 
L 2766 2266 
Q 2766 2663 2505 2880 
Q 2244 3097 1772 3097 
Q 1472 3097 1187 3025 
Q 903 2953 641 2809 
L 641 3341 
Q 956 3463 1253 3523 
Q 1550 3584 1831 3584 
Q 2591 3584 2966 3190 
Q 3341 2797 3341 1997 
z
" transform="scale(0.015625)"/>
       <path id="DejaVuSans-79" d="M 2059 -325 
Q 1816 -950 1584 -1140 
Q 1353 -1331 966 -1331 
L 506 -1331 
L 506 -850 
L 844 -850 
Q 1081 -850 1212 -737 
Q 1344 -625 1503 -206 
L 1606 56 
L 191 3500 
L 800 3500 
L 1894 763 
L 2988 3500 
L 3597 3500 
L 2059 -325 
z
" transform="scale(0.015625)"/>
       <path id="DejaVuSans-20" transform="scale(0.015625)"/>
      </defs>
      <use xlink:href="#DejaVuSans-41"/>
      <use xlink:href="#DejaVuSans-73" x="68.408203"/>
      <use xlink:href="#DejaVuSans-73" x="120.507812"/>
      <use xlink:href="#DejaVuSans-61" x="172.607422"/>
      <use xlink:href="#DejaVuSans-79" x="233.886719"/>
      <use xlink:href="#DejaVuSans-20" x="293.066406"/>
      <use xlink:href="#DejaVuSans-31" x="324.853516"/>
     </g>
    </g>
    <g id="patch_8">
     <path d="M 286.599063 62.977656 
L 312.599063 62.977656 
L 312.599063 53.877656 
L 286.599063 53.877656 
z
" style="fill: #31688e; fill-opacity: 0.4; stroke: #31688e; stroke-opacity: 0.7; stroke-linejoin: miter"/>
    </g>
    <g id="text_18">
     <!-- Assay 2 -->
     <g transform="translate(322.999062 62.977656) scale(0.13 -0.13)">
      <use xlink:href="#DejaVuSans-41"/>
      <use xlink:href="#DejaVuSans-73" x="68.408203"/>
      <use xlink:href="#DejaVuSans-73" x="120.507812"/>
      <use xlink:href="#DejaVuSans-61" x="172.607422"/>
      <use xlink:href="#DejaVuSans-79" x="233.886719"/>
      <use xlink:href="#DejaVuSans-20" x="293.066406"/>
      <use xlink:href="#DejaVuSans-32" x="324.853516"/>
     </g>
    </g>
    <g id="patch_9">
     <path d="M 286.599063 82.059219 
L 312.599063 82.059219 
L 312.599063 72.959219 
L 286.599063 72.959219 
z
" style="fill: #35b779; fill-opacity: 0.4; stroke: #35b779; stroke-opacity: 0.7; stroke-linejoin: miter"/>
    </g>
    <g id="text_19">
     <!-- Assay 3 -->
     <g transform="translate(322.999062 82.059219) scale(0.13 -0.13)">
      <defs>
       <path id="DejaVuSans-33" d="M 2597 2516 
Q 3050 2419 3304 2112 
Q 3559 1806 3559 1356 
Q 3559 666 3084 287 
Q 2609 -91 1734 -91 
Q 1441 -91 1130 -33 
Q 819 25 488 141 
L 488 750 
Q 750 597 1062 519 
Q 1375 441 1716 441 
Q 2309 441 2620 675 
Q 2931 909 2931 1356 
Q 2931 1769 2642 2001 
Q 2353 2234 1838 2234 
L 1294 2234 
L 1294 2753 
L 1863 2753 
Q 2328 2753 2575 2939 
Q 2822 3125 2822 3475 
Q 2822 3834 2567 4026 
Q 2313 4219 1838 4219 
Q 1578 4219 1281 4162 
Q 984 4106 628 3988 
L 628 4550 
Q 988 4650 1302 4700 
Q 1616 4750 1894 4750 
Q 2613 4750 3031 4423 
Q 3450 4097 3450 3541 
Q 3450 3153 3228 2886 
Q 3006 2619 2597 2516 
z
" transform="scale(0.015625)"/>
      </defs>
      <use xlink:href="#DejaVuSans-41"/>
      <use xlink:href="#DejaVuSans-73" x="68.408203"/>
      <use xlink:href="#DejaVuSans-73" x="120.507812"/>
      <use xlink:href="#DejaVuSans-61" x="172.607422"/>
      <use xlink:href="#DejaVuSans-79" x="233.886719"/>
      <use xlink:href="#DejaVuSans-20" x="293.066406"/>
      <use xlink:href="#DejaVuSans-33" x="324.853516"/>
     </g>
    </g>
    <g id="patch_10">
     <path d="M 286.599063 101.140781 
L 312.599063 101.140781 
L 312.599063 92.040781 
L 286.599063 92.040781 
z
" style="fill: #fde725; fill-opacity: 0.4; stroke: #fde725; stroke-opacity: 0.7; stroke-linejoin: miter"/>
    </g>
    <g id="text_20">
     <!-- Assay 4 -->
     <g transform="translate(322.999062 101.140781) scale(0.13 -0.13)">
      <use xlink:href="#DejaVuSans-41"/>
      <use xlink:href="#DejaVuSans-73" x="68.408203"/>
      <use xlink:href="#DejaVuSans-73" x="120.507812"/>
      <use xlink:href="#DejaVuSans-61" x="172.607422"/>
      <use xlink:href="#DejaVuSans-79" x="233.886719"/>
      <use xlink:href="#DejaVuSans-20" x="293.066406"/>
      <use xlink:href="#DejaVuSans-34" x="324.853516"/>
     </g>
    </g>
   </g>
  </g>
  <g id="axes_2">
   <g id="patch_11">
    <path d="M 803.080987 186.452598 
C 777.948575 165.364 748.60552 151.377055 721.514289 147.572227 
C 694.423058 143.767398 671.79553 150.455333 658.615157 166.163091 
C 645.434783 181.870848 642.777682 205.31596 651.229049 231.334913 
C 659.680417 257.353866 678.550236 283.822327 703.682649 304.910925 
C 728.815061 325.999523 758.158117 339.986467 785.249348 343.791296 
C 812.340579 347.596125 834.968106 340.90819 848.14848 325.200432 
C 861.328854 309.492674 863.985954 286.047562 855.534587 260.02861 
C 847.083219 234.009657 828.2134 207.541196 803.080987 186.452598 
z
" clip-path="url(#p974e53e991)" style="fill: #440154; fill-opacity: 0.4; stroke: #440154; stroke-opacity: 0.7; stroke-linejoin: miter"/>
   </g>
   <g id="patch_12">
    <path d="M 837.444624 152.088961 
C 812.312211 131.000363 782.969156 117.013419 755.877925 113.20859 
C 728.786694 109.403762 706.159167 116.091696 692.978793 131.799454 
C 679.798419 147.507212 677.141318 170.952324 685.592686 196.971277 
C 694.044053 222.99023 712.913873 249.458691 738.046285 270.547289 
C 763.178698 291.635887 792.521753 305.622831 819.612984 309.42766 
C 846.704215 313.232488 869.331742 306.544554 882.512116 290.836796 
C 895.69249 275.129038 898.349591 251.683926 889.898223 225.664973 
C 881.446856 199.64602 862.577036 173.177559 837.444624 152.088961 
z
" clip-path="url(#p974e53e991)" style="fill: #31688e; fill-opacity: 0.4; stroke: #31688e; stroke-opacity: 0.7; stroke-linejoin: miter"/>
   </g>
   <g id="patch_13">
    <path d="M 869.746442 270.547289 
C 894.878854 249.458691 913.748674 222.99023 922.200041 196.971277 
C 930.651409 170.952324 927.994308 147.507212 914.813934 131.799454 
C 901.633561 116.091696 879.006033 109.403762 851.914802 113.20859 
C 824.823571 117.013419 795.480516 131.000363 770.348103 152.088961 
C 745.215691 173.177559 726.345872 199.64602 717.894504 225.664973 
C 709.443136 251.683926 712.100237 275.129038 725.280611 290.836796 
C 738.460985 306.544554 761.088512 313.232488 788.179743 309.42766 
C 815.270974 305.622831 844.61403 291.635887 869.746442 270.547289 
z
" clip-path="url(#p974e53e991)" style="fill: #35b779; fill-opacity: 0.4; stroke: #35b779; stroke-opacity: 0.7; stroke-linejoin: miter"/>
   </g>
   <g id="patch_14">
    <path d="M 904.110078 304.910925 
C 929.242491 283.822327 948.11231 257.353866 956.563678 231.334913 
C 965.015045 205.31596 962.357945 181.870848 949.177571 166.163091 
C 935.997197 150.455333 913.369669 143.767398 886.278439 147.572227 
C 859.187208 151.377055 829.844152 165.364 804.71174 186.452598 
C 779.579327 207.541196 760.709508 234.009657 752.25814 260.02861 
C 743.806773 286.047562 746.463874 309.492674 759.644247 325.200432 
C 772.824621 340.90819 795.452149 347.596125 822.54338 343.791296 
C 849.634611 339.986467 878.977666 325.999523 904.110078 304.910925 
z
" clip-path="url(#p974e53e991)" style="fill: #fde725; fill-opacity: 0.4; stroke: #fde725; stroke-opacity: 0.7; stroke-linejoin: miter"/>
   </g>
   <g id="matplotlib.axis_3"/>
   <g id="matplotlib.axis_4"/>
   <g id="text_21">
    <!-- 4 -->
    <g transform="translate(921.064375 242.396222) scale(0.13 -0.13)">
     <use xlink:href="#DejaVuSans-34"/>
    </g>
   </g>
   <g id="text_22">
    <!-- 0 -->
    <g transform="translate(862.646193 139.305313) scale(0.13 -0.13)">
     <use xlink:href="#DejaVuSans-30"/>
    </g>
   </g>
   <g id="text_23">
    <!-- 0 -->
    <g transform="translate(893.573466 183.97804) scale(0.13 -0.13)">
     <use xlink:href="#DejaVuSans-30"/>
    </g>
   </g>
   <g id="text_24">
    <!-- 0 -->
    <g transform="translate(738.937102 139.305313) scale(0.13 -0.13)">
     <use xlink:href="#DejaVuSans-30"/>
    </g>
   </g>
   <g id="text_25">
    <!-- 0 -->
    <g transform="translate(872.955284 283.632585) scale(0.13 -0.13)">
     <use xlink:href="#DejaVuSans-30"/>
    </g>
   </g>
   <g id="text_26">
    <!-- 0 -->
    <g transform="translate(800.791648 159.923494) scale(0.13 -0.13)">
     <use xlink:href="#DejaVuSans-30"/>
    </g>
   </g>
   <g id="text_27">
    <!-- 11 -->
    <g transform="translate(848.201477 214.905313) scale(0.13 -0.13)">
     <use xlink:href="#DejaVuSans-31"/>
     <use xlink:href="#DejaVuSans-31" x="63.623047"/>
    </g>
   </g>
   <g id="text_28">
    <!-- 1 -->
    <g transform="translate(677.082557 242.396222) scale(0.13 -0.13)">
     <use xlink:href="#DejaVuSans-31"/>
    </g>
   </g>
   <g id="text_29">
    <!-- 15 -->
    <g transform="translate(796.656023 328.305313) scale(0.13 -0.13)">
     <defs>
      <path id="DejaVuSans-35" d="M 691 4666 
L 3169 4666 
L 3169 4134 
L 1269 4134 
L 1269 2991 
Q 1406 3038 1543 3061 
Q 1681 3084 1819 3084 
Q 2600 3084 3056 2656 
Q 3513 2228 3513 1497 
Q 3513 744 3044 326 
Q 2575 -91 1722 -91 
Q 1428 -91 1123 -41 
Q 819 9 494 109 
L 494 744 
Q 775 591 1075 516 
Q 1375 441 1709 441 
Q 2250 441 2565 725 
Q 2881 1009 2881 1497 
Q 2881 1984 2565 2268 
Q 2250 2553 1709 2553 
Q 1456 2553 1204 2497 
Q 953 2441 691 2322 
L 691 4666 
z
" transform="scale(0.015625)"/>
     </defs>
     <use xlink:href="#DejaVuSans-31"/>
     <use xlink:href="#DejaVuSans-35" x="63.623047"/>
    </g>
   </g>
   <g id="text_30">
    <!-- 0 -->
    <g transform="translate(728.628011 283.632585) scale(0.13 -0.13)">
     <use xlink:href="#DejaVuSans-30"/>
    </g>
   </g>
   <g id="text_31">
    <!-- 0 -->
    <g transform="translate(762.991648 304.250767) scale(0.13 -0.13)">
     <use xlink:href="#DejaVuSans-30"/>
    </g>
   </g>
   <g id="text_32">
    <!-- 0 -->
    <g transform="translate(708.00983 183.97804) scale(0.13 -0.13)">
     <use xlink:href="#DejaVuSans-30"/>
    </g>
   </g>
   <g id="text_33">
    <!-- 0 -->
    <g transform="translate(838.591648 304.250767) scale(0.13 -0.13)">
     <use xlink:href="#DejaVuSans-30"/>
    </g>
   </g>
   <g id="text_34">
    <!-- 0 -->
    <g transform="translate(749.246193 214.905313) scale(0.13 -0.13)">
     <use xlink:href="#DejaVuSans-30"/>
    </g>
   </g>
   <g id="text_35">
    <!-- 437 -->
    <g transform="translate(792.520398 256.141676) scale(0.13 -0.13)">
     <use xlink:href="#DejaVuSans-34"/>
     <use xlink:href="#DejaVuSans-33" x="63.623047"/>
     <use xlink:href="#DejaVuSans-37" x="127.246094"/>
    </g>
   </g>
   <g id="text_36">
    <!-- EV-B -->
    <g transform="translate(791.320398 16.318125) scale(0.12 -0.12)">
     <defs>
      <path id="DejaVuSans-42" d="M 1259 2228 
L 1259 519 
L 2272 519 
Q 2781 519 3026 730 
Q 3272 941 3272 1375 
Q 3272 1813 3026 2020 
Q 2781 2228 2272 2228 
L 1259 2228 
z
M 1259 4147 
L 1259 2741 
L 2194 2741 
Q 2656 2741 2882 2914 
Q 3109 3088 3109 3444 
Q 3109 3797 2882 3972 
Q 2656 4147 2194 4147 
L 1259 4147 
z
M 628 4666 
L 2241 4666 
Q 2963 4666 3353 4366 
Q 3744 4066 3744 3513 
Q 3744 3084 3544 2831 
Q 3344 2578 2956 2516 
Q 3422 2416 3680 2098 
Q 3938 1781 3938 1306 
Q 3938 681 3513 340 
Q 3088 0 2303 0 
L 628 0 
L 628 4666 
z
" transform="scale(0.015625)"/>
     </defs>
     <use xlink:href="#DejaVuSans-45"/>
     <use xlink:href="#DejaVuSans-56" x="63.183594"/>
     <use xlink:href="#DejaVuSans-2d" x="125.716797"/>
     <use xlink:href="#DejaVuSans-42" x="158.175781"/>
    </g>
   </g>
   <g id="legend_2">
    <g id="patch_15">
     <path d="M 892.726335 109.044375 
L 984.827273 109.044375 
Q 987.427273 109.044375 987.427273 106.444375 
L 987.427273 31.418125 
Q 987.427273 28.818125 984.827273 28.818125 
L 892.726335 28.818125 
Q 890.126335 28.818125 890.126335 31.418125 
L 890.126335 106.444375 
Q 890.126335 109.044375 892.726335 109.044375 
z
" style="fill: #ffffff; opacity: 0.8; stroke: #cccccc; stroke-linejoin: miter"/>
    </g>
    <g id="patch_16">
     <path d="M 895.326335 43.896094 
L 921.326335 43.896094 
L 921.326335 34.796094 
L 895.326335 34.796094 
z
" style="fill: #440154; fill-opacity: 0.4; stroke: #440154; stroke-opacity: 0.7; stroke-linejoin: miter"/>
    </g>
    <g id="text_37">
     <!-- Assay 1 -->
     <g transform="translate(931.726335 43.896094) scale(0.13 -0.13)">
      <use xlink:href="#DejaVuSans-41"/>
      <use xlink:href="#DejaVuSans-73" x="68.408203"/>
      <use xlink:href="#DejaVuSans-73" x="120.507812"/>
      <use xlink:href="#DejaVuSans-61" x="172.607422"/>
      <use xlink:href="#DejaVuSans-79" x="233.886719"/>
      <use xlink:href="#DejaVuSans-20" x="293.066406"/>
      <use xlink:href="#DejaVuSans-31" x="324.853516"/>
     </g>
    </g>
    <g id="patch_17">
     <path d="M 895.326335 62.977656 
L 921.326335 62.977656 
L 921.326335 53.877656 
L 895.326335 53.877656 
z
" style="fill: #31688e; fill-opacity: 0.4; stroke: #31688e; stroke-opacity: 0.7; stroke-linejoin: miter"/>
    </g>
    <g id="text_38">
     <!-- Assay 2 -->
     <g transform="translate(931.726335 62.977656) scale(0.13 -0.13)">
      <use xlink:href="#DejaVuSans-41"/>
      <use xlink:href="#DejaVuSans-73" x="68.408203"/>
      <use xlink:href="#DejaVuSans-73" x="120.507812"/>
      <use xlink:href="#DejaVuSans-61" x="172.607422"/>
      <use xlink:href="#DejaVuSans-79" x="233.886719"/>
      <use xlink:href="#DejaVuSans-20" x="293.066406"/>
      <use xlink:href="#DejaVuSans-32" x="324.853516"/>
     </g>
    </g>
    <g id="patch_18">
     <path d="M 895.326335 82.059219 
L 921.326335 82.059219 
L 921.326335 72.959219 
L 895.326335 72.959219 
z
" style="fill: #35b779; fill-opacity: 0.4; stroke: #35b779; stroke-opacity: 0.7; stroke-linejoin: miter"/>
    </g>
    <g id="text_39">
     <!-- Assay 3 -->
     <g transform="translate(931.726335 82.059219) scale(0.13 -0.13)">
      <use xlink:href="#DejaVuSans-41"/>
      <use xlink:href="#DejaVuSans-73" x="68.408203"/>
      <use xlink:href="#DejaVuSans-73" x="120.507812"/>
      <use xlink:href="#DejaVuSans-61" x="172.607422"/>
      <use xlink:href="#DejaVuSans-79" x="233.886719"/>
      <use xlink:href="#DejaVuSans-20" x="293.066406"/>
      <use xlink:href="#DejaVuSans-33" x="324.853516"/>
     </g>
    </g>
    <g id="patch_19">
     <path d="M 895.326335 101.140781 
L 921.326335 101.140781 
L 921.326335 92.040781 
L 895.326335 92.040781 
z
" style="fill: #fde725; fill-opacity: 0.4; stroke: #fde725; stroke-opacity: 0.7; stroke-linejoin: miter"/>
    </g>
    <g id="text_40">
     <!-- Assay 4 -->
     <g transform="translate(931.726335 101.140781) scale(0.13 -0.13)">
      <use xlink:href="#DejaVuSans-41"/>
      <use xlink:href="#DejaVuSans-73" x="68.408203"/>
      <use xlink:href="#DejaVuSans-73" x="120.507812"/>
      <use xlink:href="#DejaVuSans-61" x="172.607422"/>
      <use xlink:href="#DejaVuSans-79" x="233.886719"/>
      <use xlink:href="#DejaVuSans-20" x="293.066406"/>
      <use xlink:href="#DejaVuSans-34" x="324.853516"/>
     </g>
    </g>
   </g>
  </g>
  <g id="axes_3">
   <g id="patch_20">
    <path d="M 194.353715 640.052598 
C 169.221302 618.964 139.878247 604.977055 112.787016 601.172227 
C 85.695785 597.367398 63.068258 604.055333 49.887884 619.763091 
C 36.70751 635.470848 34.050409 658.91596 42.501777 684.934913 
C 50.953144 710.953866 69.822964 737.422327 94.955376 758.510925 
C 120.087789 779.599523 149.430844 793.586467 176.522075 797.391296 
C 203.613306 801.196125 226.240833 794.50819 239.421207 778.800432 
C 252.601581 763.092674 255.258682 739.647562 246.807314 713.62861 
C 238.355947 687.609657 219.486127 661.141196 194.353715 640.052598 
z
" clip-path="url(#p4f4c9ce793)" style="fill: #440154; fill-opacity: 0.4; stroke: #440154; stroke-opacity: 0.7; stroke-linejoin: miter"/>
   </g>
   <g id="patch_21">
    <path d="M 228.717351 605.688961 
C 203.584939 584.600363 174.241883 570.613419 147.150652 566.80859 
C 120.059421 563.003762 97.431894 569.691696 84.25152 585.399454 
C 71.071146 601.107212 68.414046 624.552324 76.865413 650.571277 
C 85.316781 676.59023 104.1866 703.058691 129.319013 724.147289 
C 154.451425 745.235887 183.79448 759.222831 210.885711 763.02766 
C 237.976942 766.832488 260.60447 760.144554 273.784843 744.436796 
C 286.965217 728.729038 289.622318 705.283926 281.170951 679.264973 
C 272.719583 653.24602 253.849764 626.777559 228.717351 605.688961 
z
" clip-path="url(#p4f4c9ce793)" style="fill: #31688e; fill-opacity: 0.4; stroke: #31688e; stroke-opacity: 0.7; stroke-linejoin: miter"/>
   </g>
   <g id="patch_22">
    <path d="M 261.019169 724.147289 
C 286.151582 703.058691 305.021401 676.59023 313.472769 650.571277 
C 321.924136 624.552324 319.267035 601.107212 306.086662 585.399454 
C 292.906288 569.691696 270.27876 563.003762 243.187529 566.80859 
C 216.096299 570.613419 186.753243 584.600363 161.620831 605.688961 
C 136.488418 626.777559 117.618599 653.24602 109.167231 679.264973 
C 100.715864 705.283926 103.372965 728.729038 116.553338 744.436796 
C 129.733712 760.144554 152.36124 766.832488 179.452471 763.02766 
C 206.543701 759.222831 235.886757 745.235887 261.019169 724.147289 
z
" clip-path="url(#p4f4c9ce793)" style="fill: #35b779; fill-opacity: 0.4; stroke: #35b779; stroke-opacity: 0.7; stroke-linejoin: miter"/>
   </g>
   <g id="patch_23">
    <path d="M 295.382806 758.510925 
C 320.515218 737.422327 339.385037 710.953866 347.836405 684.934913 
C 356.287773 658.91596 353.630672 635.470848 340.450298 619.763091 
C 327.269924 604.055333 304.642397 597.367398 277.551166 601.172227 
C 250.459935 604.977055 221.11688 618.964 195.984467 640.052598 
C 170.852055 661.141196 151.982235 687.609657 143.530868 713.62861 
C 135.0795 739.647562 137.736601 763.092674 150.916975 778.800432 
C 164.097348 794.50819 186.724876 801.196125 213.816107 797.391296 
C 240.907338 793.586467 270.250393 779.599523 295.382806 758.510925 
z
" clip-path="url(#p4f4c9ce793)" style="fill: #fde725; fill-opacity: 0.4; stroke: #fde725; stroke-opacity: 0.7; stroke-linejoin: miter"/>
   </g>
   <g id="matplotlib.axis_5"/>
   <g id="matplotlib.axis_6"/>
   <g id="text_41">
    <!-- 3 -->
    <g transform="translate(312.337102 695.996222) scale(0.13 -0.13)">
     <use xlink:href="#DejaVuSans-33"/>
    </g>
   </g>
   <g id="text_42">
    <!-- 0 -->
    <g transform="translate(253.91892 592.905313) scale(0.13 -0.13)">
     <use xlink:href="#DejaVuSans-30"/>
    </g>
   </g>
   <g id="text_43">
    <!-- 0 -->
    <g transform="translate(284.846193 637.57804) scale(0.13 -0.13)">
     <use xlink:href="#DejaVuSans-30"/>
    </g>
   </g>
   <g id="text_44">
    <!-- 0 -->
    <g transform="translate(130.20983 592.905313) scale(0.13 -0.13)">
     <use xlink:href="#DejaVuSans-30"/>
    </g>
   </g>
   <g id="text_45">
    <!-- 0 -->
    <g transform="translate(264.228011 737.232585) scale(0.13 -0.13)">
     <use xlink:href="#DejaVuSans-30"/>
    </g>
   </g>
   <g id="text_46">
    <!-- 0 -->
    <g transform="translate(192.064375 613.523494) scale(0.13 -0.13)">
     <use xlink:href="#DejaVuSans-30"/>
    </g>
   </g>
   <g id="text_47">
    <!-- 6 -->
    <g transform="translate(243.60983 668.505312) scale(0.13 -0.13)">
     <defs>
      <path id="DejaVuSans-36" d="M 2113 2584 
Q 1688 2584 1439 2293 
Q 1191 2003 1191 1497 
Q 1191 994 1439 701 
Q 1688 409 2113 409 
Q 2538 409 2786 701 
Q 3034 994 3034 1497 
Q 3034 2003 2786 2293 
Q 2538 2584 2113 2584 
z
M 3366 4563 
L 3366 3988 
Q 3128 4100 2886 4159 
Q 2644 4219 2406 4219 
Q 1781 4219 1451 3797 
Q 1122 3375 1075 2522 
Q 1259 2794 1537 2939 
Q 1816 3084 2150 3084 
Q 2853 3084 3261 2657 
Q 3669 2231 3669 1497 
Q 3669 778 3244 343 
Q 2819 -91 2113 -91 
Q 1303 -91 875 529 
Q 447 1150 447 2328 
Q 447 3434 972 4092 
Q 1497 4750 2381 4750 
Q 2619 4750 2861 4703 
Q 3103 4656 3366 4563 
z
" transform="scale(0.015625)"/>
     </defs>
     <use xlink:href="#DejaVuSans-36"/>
    </g>
   </g>
   <g id="text_48">
    <!-- 0 -->
    <g transform="translate(68.355284 695.996222) scale(0.13 -0.13)">
     <use xlink:href="#DejaVuSans-30"/>
    </g>
   </g>
   <g id="text_49">
    <!-- 4 -->
    <g transform="translate(192.064375 781.905312) scale(0.13 -0.13)">
     <use xlink:href="#DejaVuSans-34"/>
    </g>
   </g>
   <g id="text_50">
    <!-- 0 -->
    <g transform="translate(119.900739 737.232585) scale(0.13 -0.13)">
     <use xlink:href="#DejaVuSans-30"/>
    </g>
   </g>
   <g id="text_51">
    <!-- 0 -->
    <g transform="translate(154.264375 757.850767) scale(0.13 -0.13)">
     <use xlink:href="#DejaVuSans-30"/>
    </g>
   </g>
   <g id="text_52">
    <!-- 0 -->
    <g transform="translate(99.282557 637.57804) scale(0.13 -0.13)">
     <use xlink:href="#DejaVuSans-30"/>
    </g>
   </g>
   <g id="text_53">
    <!-- 49 -->
    <g transform="translate(225.72875 757.850767) scale(0.13 -0.13)">
     <use xlink:href="#DejaVuSans-34"/>
     <use xlink:href="#DejaVuSans-39" x="63.623047"/>
    </g>
   </g>
   <g id="text_54">
    <!-- 0 -->
    <g transform="translate(140.51892 668.505312) scale(0.13 -0.13)">
     <use xlink:href="#DejaVuSans-30"/>
    </g>
   </g>
   <g id="text_55">
    <!-- 944 -->
    <g transform="translate(183.793125 709.741676) scale(0.13 -0.13)">
     <use xlink:href="#DejaVuSans-39"/>
     <use xlink:href="#DejaVuSans-34" x="63.623047"/>
     <use xlink:href="#DejaVuSans-34" x="127.246094"/>
    </g>
   </g>
   <g id="text_56">
    <!-- EV-C -->
    <g transform="translate(182.3025 469.918125) scale(0.12 -0.12)">
     <defs>
      <path id="DejaVuSans-43" d="M 4122 4306 
L 4122 3641 
Q 3803 3938 3442 4084 
Q 3081 4231 2675 4231 
Q 1875 4231 1450 3742 
Q 1025 3253 1025 2328 
Q 1025 1406 1450 917 
Q 1875 428 2675 428 
Q 3081 428 3442 575 
Q 3803 722 4122 1019 
L 4122 359 
Q 3791 134 3420 21 
Q 3050 -91 2638 -91 
Q 1578 -91 968 557 
Q 359 1206 359 2328 
Q 359 3453 968 4101 
Q 1578 4750 2638 4750 
Q 3056 4750 3426 4639 
Q 3797 4528 4122 4306 
z
" transform="scale(0.015625)"/>
     </defs>
     <use xlink:href="#DejaVuSans-45"/>
     <use xlink:href="#DejaVuSans-56" x="63.183594"/>
     <use xlink:href="#DejaVuSans-2d" x="125.716797"/>
     <use xlink:href="#DejaVuSans-43" x="161.800781"/>
    </g>
   </g>
   <g id="legend_3">
    <g id="patch_24">
     <path d="M 283.999063 562.644375 
L 376.1 562.644375 
Q 378.7 562.644375 378.7 560.044375 
L 378.7 485.018125 
Q 378.7 482.418125 376.1 482.418125 
L 283.999063 482.418125 
Q 281.399063 482.418125 281.399063 485.018125 
L 281.399063 560.044375 
Q 281.399063 562.644375 283.999063 562.644375 
z
" style="fill: #ffffff; opacity: 0.8; stroke: #cccccc; stroke-linejoin: miter"/>
    </g>
    <g id="patch_25">
     <path d="M 286.599063 497.496094 
L 312.599063 497.496094 
L 312.599063 488.396094 
L 286.599063 488.396094 
z
" style="fill: #440154; fill-opacity: 0.4; stroke: #440154; stroke-opacity: 0.7; stroke-linejoin: miter"/>
    </g>
    <g id="text_57">
     <!-- Assay 1 -->
     <g transform="translate(322.999062 497.496094) scale(0.13 -0.13)">
      <use xlink:href="#DejaVuSans-41"/>
      <use xlink:href="#DejaVuSans-73" x="68.408203"/>
      <use xlink:href="#DejaVuSans-73" x="120.507812"/>
      <use xlink:href="#DejaVuSans-61" x="172.607422"/>
      <use xlink:href="#DejaVuSans-79" x="233.886719"/>
      <use xlink:href="#DejaVuSans-20" x="293.066406"/>
      <use xlink:href="#DejaVuSans-31" x="324.853516"/>
     </g>
    </g>
    <g id="patch_26">
     <path d="M 286.599063 516.577656 
L 312.599063 516.577656 
L 312.599063 507.477656 
L 286.599063 507.477656 
z
" style="fill: #31688e; fill-opacity: 0.4; stroke: #31688e; stroke-opacity: 0.7; stroke-linejoin: miter"/>
    </g>
    <g id="text_58">
     <!-- Assay 2 -->
     <g transform="translate(322.999062 516.577656) scale(0.13 -0.13)">
      <use xlink:href="#DejaVuSans-41"/>
      <use xlink:href="#DejaVuSans-73" x="68.408203"/>
      <use xlink:href="#DejaVuSans-73" x="120.507812"/>
      <use xlink:href="#DejaVuSans-61" x="172.607422"/>
      <use xlink:href="#DejaVuSans-79" x="233.886719"/>
      <use xlink:href="#DejaVuSans-20" x="293.066406"/>
      <use xlink:href="#DejaVuSans-32" x="324.853516"/>
     </g>
    </g>
    <g id="patch_27">
     <path d="M 286.599063 535.659219 
L 312.599063 535.659219 
L 312.599063 526.559219 
L 286.599063 526.559219 
z
" style="fill: #35b779; fill-opacity: 0.4; stroke: #35b779; stroke-opacity: 0.7; stroke-linejoin: miter"/>
    </g>
    <g id="text_59">
     <!-- Assay 3 -->
     <g transform="translate(322.999062 535.659219) scale(0.13 -0.13)">
      <use xlink:href="#DejaVuSans-41"/>
      <use xlink:href="#DejaVuSans-73" x="68.408203"/>
      <use xlink:href="#DejaVuSans-73" x="120.507812"/>
      <use xlink:href="#DejaVuSans-61" x="172.607422"/>
      <use xlink:href="#DejaVuSans-79" x="233.886719"/>
      <use xlink:href="#DejaVuSans-20" x="293.066406"/>
      <use xlink:href="#DejaVuSans-33" x="324.853516"/>
     </g>
    </g>
    <g id="patch_28">
     <path d="M 286.599063 554.740781 
L 312.599063 554.740781 
L 312.599063 545.640781 
L 286.599063 545.640781 
z
" style="fill: #fde725; fill-opacity: 0.4; stroke: #fde725; stroke-opacity: 0.7; stroke-linejoin: miter"/>
    </g>
    <g id="text_60">
     <!-- Assay 4 -->
     <g transform="translate(322.999062 554.740781) scale(0.13 -0.13)">
      <use xlink:href="#DejaVuSans-41"/>
      <use xlink:href="#DejaVuSans-73" x="68.408203"/>
      <use xlink:href="#DejaVuSans-73" x="120.507812"/>
      <use xlink:href="#DejaVuSans-61" x="172.607422"/>
      <use xlink:href="#DejaVuSans-79" x="233.886719"/>
      <use xlink:href="#DejaVuSans-20" x="293.066406"/>
      <use xlink:href="#DejaVuSans-34" x="324.853516"/>
     </g>
    </g>
   </g>
  </g>
  <g id="axes_4">
   <g id="patch_29">
    <path d="M 803.080987 640.052598 
C 777.948575 618.964 748.60552 604.977055 721.514289 601.172227 
C 694.423058 597.367398 671.79553 604.055333 658.615157 619.763091 
C 645.434783 635.470848 642.777682 658.91596 651.229049 684.934913 
C 659.680417 710.953866 678.550236 737.422327 703.682649 758.510925 
C 728.815061 779.599523 758.158117 793.586467 785.249348 797.391296 
C 812.340579 801.196125 834.968106 794.50819 848.14848 778.800432 
C 861.328854 763.092674 863.985954 739.647562 855.534587 713.62861 
C 847.083219 687.609657 828.2134 661.141196 803.080987 640.052598 
z
" clip-path="url(#p1dceb065d6)" style="fill: #440154; fill-opacity: 0.4; stroke: #440154; stroke-opacity: 0.7; stroke-linejoin: miter"/>
   </g>
   <g id="patch_30">
    <path d="M 837.444624 605.688961 
C 812.312211 584.600363 782.969156 570.613419 755.877925 566.80859 
C 728.786694 563.003762 706.159167 569.691696 692.978793 585.399454 
C 679.798419 601.107212 677.141318 624.552324 685.592686 650.571277 
C 694.044053 676.59023 712.913873 703.058691 738.046285 724.147289 
C 763.178698 745.235887 792.521753 759.222831 819.612984 763.02766 
C 846.704215 766.832488 869.331742 760.144554 882.512116 744.436796 
C 895.69249 728.729038 898.349591 705.283926 889.898223 679.264973 
C 881.446856 653.24602 862.577036 626.777559 837.444624 605.688961 
z
" clip-path="url(#p1dceb065d6)" style="fill: #31688e; fill-opacity: 0.4; stroke: #31688e; stroke-opacity: 0.7; stroke-linejoin: miter"/>
   </g>
   <g id="patch_31">
    <path d="M 869.746442 724.147289 
C 894.878854 703.058691 913.748674 676.59023 922.200041 650.571277 
C 930.651409 624.552324 927.994308 601.107212 914.813934 585.399454 
C 901.633561 569.691696 879.006033 563.003762 851.914802 566.80859 
C 824.823571 570.613419 795.480516 584.600363 770.348103 605.688961 
C 745.215691 626.777559 726.345872 653.24602 717.894504 679.264973 
C 709.443136 705.283926 712.100237 728.729038 725.280611 744.436796 
C 738.460985 760.144554 761.088512 766.832488 788.179743 763.02766 
C 815.270974 759.222831 844.61403 745.235887 869.746442 724.147289 
z
" clip-path="url(#p1dceb065d6)" style="fill: #35b779; fill-opacity: 0.4; stroke: #35b779; stroke-opacity: 0.7; stroke-linejoin: miter"/>
   </g>
   <g id="patch_32">
    <path d="M 904.110078 758.510925 
C 929.242491 737.422327 948.11231 710.953866 956.563678 684.934913 
C 965.015045 658.91596 962.357945 635.470848 949.177571 619.763091 
C 935.997197 604.055333 913.369669 597.367398 886.278439 601.172227 
C 859.187208 604.977055 829.844152 618.964 804.71174 640.052598 
C 779.579327 661.141196 760.709508 687.609657 752.25814 713.62861 
C 743.806773 739.647562 746.463874 763.092674 759.644247 778.800432 
C 772.824621 794.50819 795.452149 801.196125 822.54338 797.391296 
C 849.634611 793.586467 878.977666 779.599523 904.110078 758.510925 
z
" clip-path="url(#p1dceb065d6)" style="fill: #fde725; fill-opacity: 0.4; stroke: #fde725; stroke-opacity: 0.7; stroke-linejoin: miter"/>
   </g>
   <g id="matplotlib.axis_7"/>
   <g id="matplotlib.axis_8"/>
   <g id="text_61">
    <!-- 531 -->
    <g transform="translate(912.793125 695.996222) scale(0.13 -0.13)">
     <use xlink:href="#DejaVuSans-35"/>
     <use xlink:href="#DejaVuSans-33" x="63.623047"/>
     <use xlink:href="#DejaVuSans-31" x="127.246094"/>
    </g>
   </g>
   <g id="text_62">
    <!-- 0 -->
    <g transform="translate(862.646193 592.905313) scale(0.13 -0.13)">
     <use xlink:href="#DejaVuSans-30"/>
    </g>
   </g>
   <g id="text_63">
    <!-- 0 -->
    <g transform="translate(893.573466 637.57804) scale(0.13 -0.13)">
     <use xlink:href="#DejaVuSans-30"/>
    </g>
   </g>
   <g id="text_64">
    <!-- 0 -->
    <g transform="translate(738.937102 592.905313) scale(0.13 -0.13)">
     <use xlink:href="#DejaVuSans-30"/>
    </g>
   </g>
   <g id="text_65">
    <!-- 0 -->
    <g transform="translate(872.955284 737.232585) scale(0.13 -0.13)">
     <use xlink:href="#DejaVuSans-30"/>
    </g>
   </g>
   <g id="text_66">
    <!-- 0 -->
    <g transform="translate(800.791648 613.523494) scale(0.13 -0.13)">
     <use xlink:href="#DejaVuSans-30"/>
    </g>
   </g>
   <g id="text_67">
    <!-- 0 -->
    <g transform="translate(852.337102 668.505312) scale(0.13 -0.13)">
     <use xlink:href="#DejaVuSans-30"/>
    </g>
   </g>
   <g id="text_68">
    <!-- 0 -->
    <g transform="translate(677.082557 695.996222) scale(0.13 -0.13)">
     <use xlink:href="#DejaVuSans-30"/>
    </g>
   </g>
   <g id="text_69">
    <!-- 0 -->
    <g transform="translate(800.791648 781.905312) scale(0.13 -0.13)">
     <use xlink:href="#DejaVuSans-30"/>
    </g>
   </g>
   <g id="text_70">
    <!-- 0 -->
    <g transform="translate(728.628011 737.232585) scale(0.13 -0.13)">
     <use xlink:href="#DejaVuSans-30"/>
    </g>
   </g>
   <g id="text_71">
    <!-- 0 -->
    <g transform="translate(762.991648 757.850767) scale(0.13 -0.13)">
     <use xlink:href="#DejaVuSans-30"/>
    </g>
   </g>
   <g id="text_72">
    <!-- 0 -->
    <g transform="translate(708.00983 637.57804) scale(0.13 -0.13)">
     <use xlink:href="#DejaVuSans-30"/>
    </g>
   </g>
   <g id="text_73">
    <!-- 0 -->
    <g transform="translate(838.591648 757.850767) scale(0.13 -0.13)">
     <use xlink:href="#DejaVuSans-30"/>
    </g>
   </g>
   <g id="text_74">
    <!-- 0 -->
    <g transform="translate(749.246193 668.505312) scale(0.13 -0.13)">
     <use xlink:href="#DejaVuSans-30"/>
    </g>
   </g>
   <g id="text_75">
    <!-- 6 -->
    <g transform="translate(800.791648 709.741676) scale(0.13 -0.13)">
     <use xlink:href="#DejaVuSans-36"/>
    </g>
   </g>
   <g id="text_76">
    <!-- EV-D -->
    <g transform="translate(790.59946 469.918125) scale(0.12 -0.12)">
     <defs>
      <path id="DejaVuSans-44" d="M 1259 4147 
L 1259 519 
L 2022 519 
Q 2988 519 3436 956 
Q 3884 1394 3884 2338 
Q 3884 3275 3436 3711 
Q 2988 4147 2022 4147 
L 1259 4147 
z
M 628 4666 
L 1925 4666 
Q 3281 4666 3915 4102 
Q 4550 3538 4550 2338 
Q 4550 1131 3912 565 
Q 3275 0 1925 0 
L 628 0 
L 628 4666 
z
" transform="scale(0.015625)"/>
     </defs>
     <use xlink:href="#DejaVuSans-45"/>
     <use xlink:href="#DejaVuSans-56" x="63.183594"/>
     <use xlink:href="#DejaVuSans-2d" x="125.716797"/>
     <use xlink:href="#DejaVuSans-44" x="161.800781"/>
    </g>
   </g>
   <g id="legend_4">
    <g id="patch_33">
     <path d="M 892.726335 562.644375 
L 984.827273 562.644375 
Q 987.427273 562.644375 987.427273 560.044375 
L 987.427273 485.018125 
Q 987.427273 482.418125 984.827273 482.418125 
L 892.726335 482.418125 
Q 890.126335 482.418125 890.126335 485.018125 
L 890.126335 560.044375 
Q 890.126335 562.644375 892.726335 562.644375 
z
" style="fill: #ffffff; opacity: 0.8; stroke: #cccccc; stroke-linejoin: miter"/>
    </g>
    <g id="patch_34">
     <path d="M 895.326335 497.496094 
L 921.326335 497.496094 
L 921.326335 488.396094 
L 895.326335 488.396094 
z
" style="fill: #440154; fill-opacity: 0.4; stroke: #440154; stroke-opacity: 0.7; stroke-linejoin: miter"/>
    </g>
    <g id="text_77">
     <!-- Assay 1 -->
     <g transform="translate(931.726335 497.496094) scale(0.13 -0.13)">
      <use xlink:href="#DejaVuSans-41"/>
      <use xlink:href="#DejaVuSans-73" x="68.408203"/>
      <use xlink:href="#DejaVuSans-73" x="120.507812"/>
      <use xlink:href="#DejaVuSans-61" x="172.607422"/>
      <use xlink:href="#DejaVuSans-79" x="233.886719"/>
      <use xlink:href="#DejaVuSans-20" x="293.066406"/>
      <use xlink:href="#DejaVuSans-31" x="324.853516"/>
     </g>
    </g>
    <g id="patch_35">
     <path d="M 895.326335 516.577656 
L 921.326335 516.577656 
L 921.326335 507.477656 
L 895.326335 507.477656 
z
" style="fill: #31688e; fill-opacity: 0.4; stroke: #31688e; stroke-opacity: 0.7; stroke-linejoin: miter"/>
    </g>
    <g id="text_78">
     <!-- Assay 2 -->
     <g transform="translate(931.726335 516.577656) scale(0.13 -0.13)">
      <use xlink:href="#DejaVuSans-41"/>
      <use xlink:href="#DejaVuSans-73" x="68.408203"/>
      <use xlink:href="#DejaVuSans-73" x="120.507812"/>
      <use xlink:href="#DejaVuSans-61" x="172.607422"/>
      <use xlink:href="#DejaVuSans-79" x="233.886719"/>
      <use xlink:href="#DejaVuSans-20" x="293.066406"/>
      <use xlink:href="#DejaVuSans-32" x="324.853516"/>
     </g>
    </g>
    <g id="patch_36">
     <path d="M 895.326335 535.659219 
L 921.326335 535.659219 
L 921.326335 526.559219 
L 895.326335 526.559219 
z
" style="fill: #35b779; fill-opacity: 0.4; stroke: #35b779; stroke-opacity: 0.7; stroke-linejoin: miter"/>
    </g>
    <g id="text_79">
     <!-- Assay 3 -->
     <g transform="translate(931.726335 535.659219) scale(0.13 -0.13)">
      <use xlink:href="#DejaVuSans-41"/>
      <use xlink:href="#DejaVuSans-73" x="68.408203"/>
      <use xlink:href="#DejaVuSans-73" x="120.507812"/>
      <use xlink:href="#DejaVuSans-61" x="172.607422"/>
      <use xlink:href="#DejaVuSans-79" x="233.886719"/>
      <use xlink:href="#DejaVuSans-20" x="293.066406"/>
      <use xlink:href="#DejaVuSans-33" x="324.853516"/>
     </g>
    </g>
    <g id="patch_37">
     <path d="M 895.326335 554.740781 
L 921.326335 554.740781 
L 921.326335 545.640781 
L 895.326335 545.640781 
z
" style="fill: #fde725; fill-opacity: 0.4; stroke: #fde725; stroke-opacity: 0.7; stroke-linejoin: miter"/>
    </g>
    <g id="text_80">
     <!-- Assay 4 -->
     <g transform="translate(931.726335 554.740781) scale(0.13 -0.13)">
      <use xlink:href="#DejaVuSans-41"/>
      <use xlink:href="#DejaVuSans-73" x="68.408203"/>
      <use xlink:href="#DejaVuSans-73" x="120.507812"/>
      <use xlink:href="#DejaVuSans-61" x="172.607422"/>
      <use xlink:href="#DejaVuSans-79" x="233.886719"/>
      <use xlink:href="#DejaVuSans-20" x="293.066406"/>
      <use xlink:href="#DejaVuSans-34" x="324.853516"/>
     </g>
    </g>
   </g>
  </g>
 </g>
 <defs>
  <clipPath id="pfb71e0ac08">
   <rect x="7.2" y="22.318125" width="378" height="378"/>
  </clipPath>
  <clipPath id="p974e53e991">
   <rect x="615.927273" y="22.318125" width="378" height="378"/>
  </clipPath>
  <clipPath id="p4f4c9ce793">
   <rect x="7.2" y="475.918125" width="378" height="378"/>
  </clipPath>
  <clipPath id="p1dceb065d6">
   <rect x="615.927273" y="475.918125" width="378" height="378"/>
  </clipPath>
 </defs>
</svg>
