<?xml version="1.0" encoding="utf-8" standalone="no"?>
<!DOCTYPE svg PUBLIC "-//W3C//DTD SVG 1.1//EN"
  "http://www.w3.org/Graphics/SVG/1.1/DTD/svg11.dtd">
<svg xmlns:xlink="http://www.w3.org/1999/xlink" width="457.92pt" height="457.92pt" viewBox="0 0 457.92 457.92" xmlns="http://www.w3.org/2000/svg" version="1.1">
 <metadata>
  <rdf:RDF xmlns:dc="http://purl.org/dc/elements/1.1/" xmlns:cc="http://creativecommons.org/ns#" xmlns:rdf="http://www.w3.org/1999/02/22-rdf-syntax-ns#">
   <cc:Work>
    <dc:type rdf:resource="http://purl.org/dc/dcmitype/StillImage"/>
    <dc:date>2025-01-16T14:50:05.388701</dc:date>
    <dc:format>image/svg+xml</dc:format>
    <dc:creator>
     <cc:Agent>
      <dc:title>Matplotlib v3.7.0, https://matplotlib.org/</dc:title>
     </cc:Agent>
    </dc:creator>
   </cc:Work>
  </rdf:RDF>
 </metadata>
 <defs>
  <style type="text/css">*{stroke-linejoin: round; stroke-linecap: butt}</style>
 </defs>
 <g id="figure_1">
  <g id="patch_1">
   <path d="M 0 457.92 
L 457.92 457.92 
L 457.92 0 
L 0 0 
z
" style="fill: #ffffff"/>
  </g>
  <g id="axes_1">
   <g id="patch_2">
    <path d="M 226.793692 199.784448 
C 197.304995 175.040493 162.87581 158.629145 131.088765 154.164813 
C 99.301721 149.700481 72.752089 157.547657 57.287117 175.978093 
C 41.822145 194.408529 38.70448 221.91746 48.620751 252.446365 
C 58.537023 282.975269 80.677611 314.031597 110.166308 338.775552 
C 139.655005 363.519507 174.08419 379.930855 205.871235 384.395187 
C 237.658279 388.859519 264.207911 381.012343 279.672883 362.581907 
C 295.137855 344.151471 298.25552 316.64254 288.339249 286.113635 
C 278.422977 255.584731 256.282389 224.528403 226.793692 199.784448 
z
" clip-path="url(#p004a180e68)" style="fill: #440154; fill-opacity: 0.4; stroke: #440154; stroke-opacity: 0.7; stroke-linejoin: miter"/>
   </g>
   <g id="patch_3">
    <path d="M 267.113692 159.464448 
C 237.624995 134.720493 203.19581 118.309145 171.408765 113.844813 
C 139.621721 109.380481 113.072089 117.227657 97.607117 135.658093 
C 82.142145 154.088529 79.02448 181.59746 88.940751 212.126365 
C 98.857023 242.655269 120.997611 273.711597 150.486308 298.455552 
C 179.975005 323.199507 214.40419 339.610855 246.191235 344.075187 
C 277.978279 348.539519 304.527911 340.692343 319.992883 322.261907 
C 335.457855 303.831471 338.57552 276.32254 328.659249 245.793635 
C 318.742977 215.264731 296.602389 184.208403 267.113692 159.464448 
z
" clip-path="url(#p004a180e68)" style="fill: #31688e; fill-opacity: 0.4; stroke: #31688e; stroke-opacity: 0.7; stroke-linejoin: miter"/>
   </g>
   <g id="patch_4">
    <path d="M 305.014492 298.455552 
C 334.503189 273.711597 356.643777 242.655269 366.560049 212.126365 
C 376.47632 181.59746 373.358655 154.088529 357.893683 135.658093 
C 342.428711 117.227657 315.879079 109.380481 284.092035 113.844813 
C 252.30499 118.309145 217.875805 134.720493 188.387108 159.464448 
C 158.898411 184.208403 136.757823 215.264731 126.841551 245.793635 
C 116.92528 276.32254 120.042945 303.831471 135.507917 322.261907 
C 150.972889 340.692343 177.522521 348.539519 209.309565 344.075187 
C 241.09661 339.610855 275.525795 323.199507 305.014492 298.455552 
z
" clip-path="url(#p004a180e68)" style="fill: #35b779; fill-opacity: 0.4; stroke: #35b779; stroke-opacity: 0.7; stroke-linejoin: miter"/>
   </g>
   <g id="patch_5">
    <path d="M 345.334492 338.775552 
C 374.823189 314.031597 396.963777 282.975269 406.880049 252.446365 
C 416.79632 221.91746 413.678655 194.408529 398.213683 175.978093 
C 382.748711 157.547657 356.199079 149.700481 324.412035 154.164813 
C 292.62499 158.629145 258.195805 175.040493 228.707108 199.784448 
C 199.218411 224.528403 177.077823 255.584731 167.161551 286.113635 
C 157.24528 316.64254 160.362945 344.151471 175.827917 362.581907 
C 191.292889 381.012343 217.842521 388.859519 249.629565 384.395187 
C 281.41661 379.930855 315.845795 363.519507 345.334492 338.775552 
z
" clip-path="url(#p004a180e68)" style="fill: #fde725; fill-opacity: 0.4; stroke: #fde725; stroke-opacity: 0.7; stroke-linejoin: miter"/>
   </g>
   <g id="matplotlib.axis_1"/>
   <g id="matplotlib.axis_2"/>
   <g id="text_1">
    <!-- 0 -->
    <g transform="translate(365.944375 264.803187) scale(0.13 -0.13)">
     <defs>
      <path id="DejaVuSans-30" d="M 2034 4250 
Q 1547 4250 1301 3770 
Q 1056 3291 1056 2328 
Q 1056 1369 1301 889 
Q 1547 409 2034 409 
Q 2525 409 2770 889 
Q 3016 1369 3016 2328 
Q 3016 3291 2770 3770 
Q 2525 4250 2034 4250 
z
M 2034 4750 
Q 2819 4750 3233 4129 
Q 3647 3509 3647 2328 
Q 3647 1150 3233 529 
Q 2819 -91 2034 -91 
Q 1250 -91 836 529 
Q 422 1150 422 2328 
Q 422 3509 836 4129 
Q 1250 4750 2034 4750 
z
" transform="scale(0.015625)"/>
     </defs>
     <use xlink:href="#DejaVuSans-30"/>
    </g>
   </g>
   <g id="text_2">
    <!-- 761 -->
    <g transform="translate(289.129125 143.843187) scale(0.13 -0.13)">
     <defs>
      <path id="DejaVuSans-37" d="M 525 4666 
L 3525 4666 
L 3525 4397 
L 1831 0 
L 1172 0 
L 2766 4134 
L 525 4134 
L 525 4666 
z
" transform="scale(0.015625)"/>
      <path id="DejaVuSans-36" d="M 2113 2584 
Q 1688 2584 1439 2293 
Q 1191 2003 1191 1497 
Q 1191 994 1439 701 
Q 1688 409 2113 409 
Q 2538 409 2786 701 
Q 3034 994 3034 1497 
Q 3034 2003 2786 2293 
Q 2538 2584 2113 2584 
z
M 3366 4563 
L 3366 3988 
Q 3128 4100 2886 4159 
Q 2644 4219 2406 4219 
Q 1781 4219 1451 3797 
Q 1122 3375 1075 2522 
Q 1259 2794 1537 2939 
Q 1816 3084 2150 3084 
Q 2853 3084 3261 2657 
Q 3669 2231 3669 1497 
Q 3669 778 3244 343 
Q 2819 -91 2113 -91 
Q 1303 -91 875 529 
Q 447 1150 447 2328 
Q 447 3434 972 4092 
Q 1497 4750 2381 4750 
Q 2619 4750 2861 4703 
Q 3103 4656 3366 4563 
z
" transform="scale(0.015625)"/>
      <path id="DejaVuSans-31" d="M 794 531 
L 1825 531 
L 1825 4091 
L 703 3866 
L 703 4441 
L 1819 4666 
L 2450 4666 
L 2450 531 
L 3481 531 
L 3481 0 
L 794 0 
L 794 531 
z
" transform="scale(0.015625)"/>
     </defs>
     <use xlink:href="#DejaVuSans-37"/>
     <use xlink:href="#DejaVuSans-36" x="63.623047"/>
     <use xlink:href="#DejaVuSans-31" x="127.246094"/>
    </g>
   </g>
   <g id="text_3">
    <!-- 0 -->
    <g transform="translate(333.688375 196.259187) scale(0.13 -0.13)">
     <use xlink:href="#DejaVuSans-30"/>
    </g>
   </g>
   <g id="text_4">
    <!-- 0 -->
    <g transform="translate(152.248375 143.843187) scale(0.13 -0.13)">
     <use xlink:href="#DejaVuSans-30"/>
    </g>
   </g>
   <g id="text_5">
    <!-- 0 -->
    <g transform="translate(309.496375 313.187187) scale(0.13 -0.13)">
     <use xlink:href="#DejaVuSans-30"/>
    </g>
   </g>
   <g id="text_6">
    <!-- 0 -->
    <g transform="translate(224.824375 168.035187) scale(0.13 -0.13)">
     <use xlink:href="#DejaVuSans-30"/>
    </g>
   </g>
   <g id="text_7">
    <!-- 26 -->
    <g transform="translate(281.16875 232.547187) scale(0.13 -0.13)">
     <defs>
      <path id="DejaVuSans-32" d="M 1228 531 
L 3431 531 
L 3431 0 
L 469 0 
L 469 531 
Q 828 903 1448 1529 
Q 2069 2156 2228 2338 
Q 2531 2678 2651 2914 
Q 2772 3150 2772 3378 
Q 2772 3750 2511 3984 
Q 2250 4219 1831 4219 
Q 1534 4219 1204 4116 
Q 875 4013 500 3803 
L 500 4441 
Q 881 4594 1212 4672 
Q 1544 4750 1819 4750 
Q 2544 4750 2975 4387 
Q 3406 4025 3406 3419 
Q 3406 3131 3298 2873 
Q 3191 2616 2906 2266 
Q 2828 2175 2409 1742 
Q 1991 1309 1228 531 
z
" transform="scale(0.015625)"/>
     </defs>
     <use xlink:href="#DejaVuSans-32"/>
     <use xlink:href="#DejaVuSans-36" x="63.623047"/>
    </g>
   </g>
   <g id="text_8">
    <!-- 2 -->
    <g transform="translate(79.672375 264.803187) scale(0.13 -0.13)">
     <use xlink:href="#DejaVuSans-32"/>
    </g>
   </g>
   <g id="text_9">
    <!-- 0 -->
    <g transform="translate(224.824375 365.603187) scale(0.13 -0.13)">
     <use xlink:href="#DejaVuSans-30"/>
    </g>
   </g>
   <g id="text_10">
    <!-- 36 -->
    <g transform="translate(136.01675 313.187187) scale(0.13 -0.13)">
     <defs>
      <path id="DejaVuSans-33" d="M 2597 2516 
Q 3050 2419 3304 2112 
Q 3559 1806 3559 1356 
Q 3559 666 3084 287 
Q 2609 -91 1734 -91 
Q 1441 -91 1130 -33 
Q 819 25 488 141 
L 488 750 
Q 750 597 1062 519 
Q 1375 441 1716 441 
Q 2309 441 2620 675 
Q 2931 909 2931 1356 
Q 2931 1769 2642 2001 
Q 2353 2234 1838 2234 
L 1294 2234 
L 1294 2753 
L 1863 2753 
Q 2328 2753 2575 2939 
Q 2822 3125 2822 3475 
Q 2822 3834 2567 4026 
Q 2313 4219 1838 4219 
Q 1578 4219 1281 4162 
Q 984 4106 628 3988 
L 628 4550 
Q 988 4650 1302 4700 
Q 1616 4750 1894 4750 
Q 2613 4750 3031 4423 
Q 3450 4097 3450 3541 
Q 3450 3153 3228 2886 
Q 3006 2619 2597 2516 
z
" transform="scale(0.015625)"/>
     </defs>
     <use xlink:href="#DejaVuSans-33"/>
     <use xlink:href="#DejaVuSans-36" x="63.623047"/>
    </g>
   </g>
   <g id="text_11">
    <!-- 51 -->
    <g transform="translate(176.33675 337.379187) scale(0.13 -0.13)">
     <defs>
      <path id="DejaVuSans-35" d="M 691 4666 
L 3169 4666 
L 3169 4134 
L 1269 4134 
L 1269 2991 
Q 1406 3038 1543 3061 
Q 1681 3084 1819 3084 
Q 2600 3084 3056 2656 
Q 3513 2228 3513 1497 
Q 3513 744 3044 326 
Q 2575 -91 1722 -91 
Q 1428 -91 1123 -41 
Q 819 9 494 109 
L 494 744 
Q 775 591 1075 516 
Q 1375 441 1709 441 
Q 2250 441 2565 725 
Q 2881 1009 2881 1497 
Q 2881 1984 2565 2268 
Q 2250 2553 1709 2553 
Q 1456 2553 1204 2497 
Q 953 2441 691 2322 
L 691 4666 
z
" transform="scale(0.015625)"/>
     </defs>
     <use xlink:href="#DejaVuSans-35"/>
     <use xlink:href="#DejaVuSans-31" x="63.623047"/>
    </g>
   </g>
   <g id="text_12">
    <!-- 0 -->
    <g transform="translate(115.960375 196.259187) scale(0.13 -0.13)">
     <use xlink:href="#DejaVuSans-30"/>
    </g>
   </g>
   <g id="text_13">
    <!-- 22 -->
    <g transform="translate(265.04075 337.379187) scale(0.13 -0.13)">
     <use xlink:href="#DejaVuSans-32"/>
     <use xlink:href="#DejaVuSans-32" x="63.623047"/>
    </g>
   </g>
   <g id="text_14">
    <!-- 0 -->
    <g transform="translate(164.344375 232.547187) scale(0.13 -0.13)">
     <use xlink:href="#DejaVuSans-30"/>
    </g>
   </g>
   <g id="text_15">
    <!-- 2864 -->
    <g transform="translate(212.4175 280.931187) scale(0.13 -0.13)">
     <defs>
      <path id="DejaVuSans-38" d="M 2034 2216 
Q 1584 2216 1326 1975 
Q 1069 1734 1069 1313 
Q 1069 891 1326 650 
Q 1584 409 2034 409 
Q 2484 409 2743 651 
Q 3003 894 3003 1313 
Q 3003 1734 2745 1975 
Q 2488 2216 2034 2216 
z
M 1403 2484 
Q 997 2584 770 2862 
Q 544 3141 544 3541 
Q 544 4100 942 4425 
Q 1341 4750 2034 4750 
Q 2731 4750 3128 4425 
Q 3525 4100 3525 3541 
Q 3525 3141 3298 2862 
Q 3072 2584 2669 2484 
Q 3125 2378 3379 2068 
Q 3634 1759 3634 1313 
Q 3634 634 3220 271 
Q 2806 -91 2034 -91 
Q 1263 -91 848 271 
Q 434 634 434 1313 
Q 434 1759 690 2068 
Q 947 2378 1403 2484 
z
M 1172 3481 
Q 1172 3119 1398 2916 
Q 1625 2713 2034 2713 
Q 2441 2713 2670 2916 
Q 2900 3119 2900 3481 
Q 2900 3844 2670 4047 
Q 2441 4250 2034 4250 
Q 1625 4250 1398 4047 
Q 1172 3844 1172 3481 
z
" transform="scale(0.015625)"/>
      <path id="DejaVuSans-34" d="M 2419 4116 
L 825 1625 
L 2419 1625 
L 2419 4116 
z
M 2253 4666 
L 3047 4666 
L 3047 1625 
L 3713 1625 
L 3713 1100 
L 3047 1100 
L 3047 0 
L 2419 0 
L 2419 1100 
L 313 1100 
L 313 1709 
L 2253 4666 
z
" transform="scale(0.015625)"/>
     </defs>
     <use xlink:href="#DejaVuSans-32"/>
     <use xlink:href="#DejaVuSans-38" x="63.623047"/>
     <use xlink:href="#DejaVuSans-36" x="127.246094"/>
     <use xlink:href="#DejaVuSans-34" x="190.869141"/>
    </g>
   </g>
   <g id="legend_1">
    <g id="patch_6">
     <path d="M 349.519063 93.92625 
L 441.62 93.92625 
Q 444.22 93.92625 444.22 91.32625 
L 444.22 16.3 
Q 444.22 13.7 441.62 13.7 
L 349.519063 13.7 
Q 346.919063 13.7 346.919063 16.3 
L 346.919063 91.32625 
Q 346.919063 93.92625 349.519063 93.92625 
z
" style="fill: #ffffff; opacity: 0.8; stroke: #cccccc; stroke-linejoin: miter"/>
    </g>
    <g id="patch_7">
     <path d="M 352.119063 28.777969 
L 378.119063 28.777969 
L 378.119063 19.677969 
L 352.119063 19.677969 
z
" style="fill: #440154; fill-opacity: 0.4; stroke: #440154; stroke-opacity: 0.7; stroke-linejoin: miter"/>
    </g>
    <g id="text_16">
     <!-- Assay 0 -->
     <g transform="translate(388.519063 28.777969) scale(0.13 -0.13)">
      <defs>
       <path id="DejaVuSans-41" d="M 2188 4044 
L 1331 1722 
L 3047 1722 
L 2188 4044 
z
M 1831 4666 
L 2547 4666 
L 4325 0 
L 3669 0 
L 3244 1197 
L 1141 1197 
L 716 0 
L 50 0 
L 1831 4666 
z
" transform="scale(0.015625)"/>
       <path id="DejaVuSans-73" d="M 2834 3397 
L 2834 2853 
Q 2591 2978 2328 3040 
Q 2066 3103 1784 3103 
Q 1356 3103 1142 2972 
Q 928 2841 928 2578 
Q 928 2378 1081 2264 
Q 1234 2150 1697 2047 
L 1894 2003 
Q 2506 1872 2764 1633 
Q 3022 1394 3022 966 
Q 3022 478 2636 193 
Q 2250 -91 1575 -91 
Q 1294 -91 989 -36 
Q 684 19 347 128 
L 347 722 
Q 666 556 975 473 
Q 1284 391 1588 391 
Q 1994 391 2212 530 
Q 2431 669 2431 922 
Q 2431 1156 2273 1281 
Q 2116 1406 1581 1522 
L 1381 1569 
Q 847 1681 609 1914 
Q 372 2147 372 2553 
Q 372 3047 722 3315 
Q 1072 3584 1716 3584 
Q 2034 3584 2315 3537 
Q 2597 3491 2834 3397 
z
" transform="scale(0.015625)"/>
       <path id="DejaVuSans-61" d="M 2194 1759 
Q 1497 1759 1228 1600 
Q 959 1441 959 1056 
Q 959 750 1161 570 
Q 1363 391 1709 391 
Q 2188 391 2477 730 
Q 2766 1069 2766 1631 
L 2766 1759 
L 2194 1759 
z
M 3341 1997 
L 3341 0 
L 2766 0 
L 2766 531 
Q 2569 213 2275 61 
Q 1981 -91 1556 -91 
Q 1019 -91 701 211 
Q 384 513 384 1019 
Q 384 1609 779 1909 
Q 1175 2209 1959 2209 
L 2766 2209 
L 2766 2266 
Q 2766 2663 2505 2880 
Q 2244 3097 1772 3097 
Q 1472 3097 1187 3025 
Q 903 2953 641 2809 
L 641 3341 
Q 956 3463 1253 3523 
Q 1550 3584 1831 3584 
Q 2591 3584 2966 3190 
Q 3341 2797 3341 1997 
z
" transform="scale(0.015625)"/>
       <path id="DejaVuSans-79" d="M 2059 -325 
Q 1816 -950 1584 -1140 
Q 1353 -1331 966 -1331 
L 506 -1331 
L 506 -850 
L 844 -850 
Q 1081 -850 1212 -737 
Q 1344 -625 1503 -206 
L 1606 56 
L 191 3500 
L 800 3500 
L 1894 763 
L 2988 3500 
L 3597 3500 
L 2059 -325 
z
" transform="scale(0.015625)"/>
       <path id="DejaVuSans-20" transform="scale(0.015625)"/>
      </defs>
      <use xlink:href="#DejaVuSans-41"/>
      <use xlink:href="#DejaVuSans-73" x="68.408203"/>
      <use xlink:href="#DejaVuSans-73" x="120.507812"/>
      <use xlink:href="#DejaVuSans-61" x="172.607422"/>
      <use xlink:href="#DejaVuSans-79" x="233.886719"/>
      <use xlink:href="#DejaVuSans-20" x="293.066406"/>
      <use xlink:href="#DejaVuSans-30" x="324.853516"/>
     </g>
    </g>
    <g id="patch_8">
     <path d="M 352.119063 47.859531 
L 378.119063 47.859531 
L 378.119063 38.759531 
L 352.119063 38.759531 
z
" style="fill: #31688e; fill-opacity: 0.4; stroke: #31688e; stroke-opacity: 0.7; stroke-linejoin: miter"/>
    </g>
    <g id="text_17">
     <!-- Assay 1 -->
     <g transform="translate(388.519063 47.859531) scale(0.13 -0.13)">
      <use xlink:href="#DejaVuSans-41"/>
      <use xlink:href="#DejaVuSans-73" x="68.408203"/>
      <use xlink:href="#DejaVuSans-73" x="120.507812"/>
      <use xlink:href="#DejaVuSans-61" x="172.607422"/>
      <use xlink:href="#DejaVuSans-79" x="233.886719"/>
      <use xlink:href="#DejaVuSans-20" x="293.066406"/>
      <use xlink:href="#DejaVuSans-31" x="324.853516"/>
     </g>
    </g>
    <g id="patch_9">
     <path d="M 352.119063 66.941094 
L 378.119063 66.941094 
L 378.119063 57.841094 
L 352.119063 57.841094 
z
" style="fill: #35b779; fill-opacity: 0.4; stroke: #35b779; stroke-opacity: 0.7; stroke-linejoin: miter"/>
    </g>
    <g id="text_18">
     <!-- Assay 2 -->
     <g transform="translate(388.519063 66.941094) scale(0.13 -0.13)">
      <use xlink:href="#DejaVuSans-41"/>
      <use xlink:href="#DejaVuSans-73" x="68.408203"/>
      <use xlink:href="#DejaVuSans-73" x="120.507812"/>
      <use xlink:href="#DejaVuSans-61" x="172.607422"/>
      <use xlink:href="#DejaVuSans-79" x="233.886719"/>
      <use xlink:href="#DejaVuSans-20" x="293.066406"/>
      <use xlink:href="#DejaVuSans-32" x="324.853516"/>
     </g>
    </g>
    <g id="patch_10">
     <path d="M 352.119063 86.022656 
L 378.119063 86.022656 
L 378.119063 76.922656 
L 352.119063 76.922656 
z
" style="fill: #fde725; fill-opacity: 0.4; stroke: #fde725; stroke-opacity: 0.7; stroke-linejoin: miter"/>
    </g>
    <g id="text_19">
     <!-- Assay 8 -->
     <g transform="translate(388.519063 86.022656) scale(0.13 -0.13)">
      <use xlink:href="#DejaVuSans-41"/>
      <use xlink:href="#DejaVuSans-73" x="68.408203"/>
      <use xlink:href="#DejaVuSans-73" x="120.507812"/>
      <use xlink:href="#DejaVuSans-61" x="172.607422"/>
      <use xlink:href="#DejaVuSans-79" x="233.886719"/>
      <use xlink:href="#DejaVuSans-20" x="293.066406"/>
      <use xlink:href="#DejaVuSans-38" x="324.853516"/>
     </g>
    </g>
   </g>
  </g>
 </g>
 <defs>
  <clipPath id="p004a180e68">
   <rect x="7.2" y="7.2" width="443.52" height="443.52"/>
  </clipPath>
 </defs>
</svg>
